<?xml version="1.0" encoding="UTF-8"?>
<!DOCTYPE svg PUBLIC "-//W3C//DTD SVG 1.1//EN" "http://www.w3.org/Graphics/SVG/1.1/DTD/svg11.dtd">
<!-- Creator: CorelDRAW -->
<svg xmlns="http://www.w3.org/2000/svg" xml:space="preserve" width="210mm" height="297mm" version="1.1" style="shape-rendering:geometricPrecision; text-rendering:geometricPrecision; image-rendering:optimizeQuality; fill-rule:evenodd; clip-rule:evenodd"
viewBox="0 0 21000 29700"
 xmlns:xlink="http://www.w3.org/1999/xlink"
 xmlns:xodm="http://www.corel.com/coreldraw/odm/2003">
 <defs>
  <style type="text/css">
   <![CDATA[
    .fil2 {fill:none}
    .fil5 {fill:none;fill-rule:nonzero}
    .fil0 {fill:white}
    .fil3 {fill:#25265A;fill-rule:nonzero}
    .fil7 {fill:white;fill-rule:nonzero}
    .fil6 {fill:url(#id3);fill-rule:nonzero}
    .fil4 {fill:url(#id4);fill-rule:nonzero}
    .fil1 {fill:url(#id5);fill-rule:nonzero}
   ]]>
  </style>
    <clipPath id="id0">
     <path d="M6130.53 7639.24l11238.52 0 0 11611.62 -11238.52 0 0 -11611.62zm0 0z"/>
    </clipPath>
    <clipPath id="id1" style="clip-rule:nonzero">
     <path d="M3828.23 12789.85l11265.82 0 0 8517.61 -11265.82 0 0 -8517.61zm0 0z"/>
    </clipPath>
    <clipPath id="id2" style="clip-rule:nonzero">
     <path d="M3391.43 8485.54l4249.71 0 0 7480.21 -4249.71 0 0 -7480.21zm0 0z"/>
    </clipPath>
  <linearGradient id="id3" gradientUnits="userSpaceOnUse" x1="10385.11" y1="14460.94" x2="10385.11" y2="14460.94">
   <stop offset="0" style="stop-opacity:1; stop-color:#B9B6B8"/>
   <stop offset="0.0196078" style="stop-opacity:1; stop-color:#B9B6B8"/>
   <stop offset="0.0313725" style="stop-opacity:1; stop-color:#B9B5B8"/>
   <stop offset="0.0509804" style="stop-opacity:1; stop-color:#B9B5B8"/>
   <stop offset="0.0588235" style="stop-opacity:1; stop-color:#B8B5B9"/>
   <stop offset="0.0901961" style="stop-opacity:1; stop-color:#B8B4B9"/>
   <stop offset="0.109804" style="stop-opacity:1; stop-color:#B8B4B9"/>
   <stop offset="0.129412" style="stop-opacity:1; stop-color:#B7B4B9"/>
   <stop offset="0.160784" style="stop-opacity:1; stop-color:#B6B4B9"/>
   <stop offset="0.188235" style="stop-opacity:1; stop-color:#B6B3BA"/>
   <stop offset="0.219608" style="stop-opacity:1; stop-color:#B5B3BA"/>
   <stop offset="0.25098" style="stop-opacity:1; stop-color:#B5B2BA"/>
   <stop offset="0.278431" style="stop-opacity:1; stop-color:#B4B2BB"/>
   <stop offset="0.309804" style="stop-opacity:1; stop-color:#B4B1BB"/>
   <stop offset="0.329412" style="stop-opacity:1; stop-color:#B3B1BB"/>
   <stop offset="0.34902" style="stop-opacity:1; stop-color:#B3B1BB"/>
   <stop offset="0.380392" style="stop-opacity:1; stop-color:#B2B0BB"/>
   <stop offset="0.411765" style="stop-opacity:1; stop-color:#B2B0BB"/>
   <stop offset="0.439216" style="stop-opacity:1; stop-color:#B1AFBB"/>
   <stop offset="0.45098" style="stop-opacity:1; stop-color:#B1AFBC"/>
   <stop offset="0.470588" style="stop-opacity:1; stop-color:#B1AEBC"/>
   <stop offset="0.501961" style="stop-opacity:1; stop-color:#B0AEBC"/>
   <stop offset="0.529412" style="stop-opacity:1; stop-color:#B0ADBC"/>
   <stop offset="0.560784" style="stop-opacity:1; stop-color:#AFADBC"/>
   <stop offset="0.580392" style="stop-opacity:1; stop-color:#AFACBC"/>
   <stop offset="0.588235" style="stop-opacity:1; stop-color:#AEACBC"/>
   <stop offset="0.619608" style="stop-opacity:1; stop-color:#AEACBC"/>
   <stop offset="0.65098" style="stop-opacity:1; stop-color:#ADABBD"/>
   <stop offset="0.690196" style="stop-opacity:1; stop-color:#ADABBD"/>
   <stop offset="0.721569" style="stop-opacity:1; stop-color:#ACAABD"/>
   <stop offset="0.74902" style="stop-opacity:1; stop-color:#ACAABD"/>
   <stop offset="0.780392" style="stop-opacity:1; stop-color:#ABA9BE"/>
   <stop offset="0.811765" style="stop-opacity:1; stop-color:#ABA9BE"/>
   <stop offset="0.839216" style="stop-opacity:1; stop-color:#AAA8BE"/>
   <stop offset="0.858824" style="stop-opacity:1; stop-color:#AAA8BE"/>
   <stop offset="0.870588" style="stop-opacity:1; stop-color:#AAA8BE"/>
   <stop offset="0.890196" style="stop-opacity:1; stop-color:#AAA7BF"/>
   <stop offset="0.909804" style="stop-opacity:1; stop-color:#A9A7BF"/>
   <stop offset="0.941176" style="stop-opacity:1; stop-color:#A9A7BF"/>
   <stop offset="0.968627" style="stop-opacity:1; stop-color:#A8A6BF"/>
   <stop offset="1" style="stop-opacity:1; stop-color:#A8A6BF"/>
  </linearGradient>
  <linearGradient id="id4" gradientUnits="userSpaceOnUse" x1="10385.11" y1="14460.94" x2="10385.11" y2="14460.94">
   <stop offset="0" style="stop-opacity:1; stop-color:#AFACBC"/>
   <stop offset="0.0196078" style="stop-opacity:1; stop-color:#AFACBC"/>
   <stop offset="0.0313725" style="stop-opacity:1; stop-color:#AEACBC"/>
   <stop offset="0.0509804" style="stop-opacity:1; stop-color:#AEABBC"/>
   <stop offset="0.0588235" style="stop-opacity:1; stop-color:#AEABBD"/>
   <stop offset="0.0901961" style="stop-opacity:1; stop-color:#ADABBD"/>
   <stop offset="0.129412" style="stop-opacity:1; stop-color:#ACAABD"/>
   <stop offset="0.160784" style="stop-opacity:1; stop-color:#ACAABD"/>
   <stop offset="0.168627" style="stop-opacity:1; stop-color:#ACA9BE"/>
   <stop offset="0.188235" style="stop-opacity:1; stop-color:#ABA9BE"/>
   <stop offset="0.219608" style="stop-opacity:1; stop-color:#ABA9BE"/>
   <stop offset="0.25098" style="stop-opacity:1; stop-color:#AAA8BE"/>
   <stop offset="0.270588" style="stop-opacity:1; stop-color:#AAA8BF"/>
   <stop offset="0.278431" style="stop-opacity:1; stop-color:#AAA7BF"/>
   <stop offset="0.301961" style="stop-opacity:1; stop-color:#A9A7BF"/>
   <stop offset="0.309804" style="stop-opacity:1; stop-color:#A8A7BF"/>
   <stop offset="0.34902" style="stop-opacity:1; stop-color:#A8A6BF"/>
   <stop offset="0.380392" style="stop-opacity:1; stop-color:#A8A6BF"/>
   <stop offset="0.388235" style="stop-opacity:1; stop-color:#A7A5BF"/>
   <stop offset="0.411765" style="stop-opacity:1; stop-color:#A7A5BF"/>
   <stop offset="0.439216" style="stop-opacity:1; stop-color:#A6A5C0"/>
   <stop offset="0.45098" style="stop-opacity:1; stop-color:#A6A4C0"/>
   <stop offset="0.470588" style="stop-opacity:1; stop-color:#A6A4C0"/>
   <stop offset="0.490196" style="stop-opacity:1; stop-color:#A5A3C0"/>
   <stop offset="0.501961" style="stop-opacity:1; stop-color:#A5A2C0"/>
   <stop offset="0.529412" style="stop-opacity:1; stop-color:#A4A2C0"/>
   <stop offset="0.54902" style="stop-opacity:1; stop-color:#A4A1C0"/>
   <stop offset="0.560784" style="stop-opacity:1; stop-color:#A3A1C0"/>
   <stop offset="0.580392" style="stop-opacity:1; stop-color:#A3A0C0"/>
   <stop offset="0.588235" style="stop-opacity:1; stop-color:#A2A0BF"/>
   <stop offset="0.619608" style="stop-opacity:1; stop-color:#A29FC0"/>
   <stop offset="0.639216" style="stop-opacity:1; stop-color:#A19FC0"/>
   <stop offset="0.65098" style="stop-opacity:1; stop-color:#A19EC0"/>
   <stop offset="0.690196" style="stop-opacity:1; stop-color:#A09EC0"/>
   <stop offset="0.721569" style="stop-opacity:1; stop-color:#A09DC0"/>
   <stop offset="0.729412" style="stop-opacity:1; stop-color:#9F9DC0"/>
   <stop offset="0.74902" style="stop-opacity:1; stop-color:#9F9DC0"/>
   <stop offset="0.780392" style="stop-opacity:1; stop-color:#9F9CC0"/>
   <stop offset="0.8" style="stop-opacity:1; stop-color:#9E9CC1"/>
   <stop offset="0.811765" style="stop-opacity:1; stop-color:#9E9CC1"/>
   <stop offset="0.831373" style="stop-opacity:1; stop-color:#9D9CC1"/>
   <stop offset="0.839216" style="stop-opacity:1; stop-color:#9D9CC1"/>
   <stop offset="0.858824" style="stop-opacity:1; stop-color:#9C9BC2"/>
   <stop offset="0.870588" style="stop-opacity:1; stop-color:#9C9BC2"/>
   <stop offset="0.909804" style="stop-opacity:1; stop-color:#9C9BC2"/>
   <stop offset="0.921569" style="stop-opacity:1; stop-color:#9B9AC2"/>
   <stop offset="0.941176" style="stop-opacity:1; stop-color:#9B9AC2"/>
   <stop offset="0.94902" style="stop-opacity:1; stop-color:#9B99C2"/>
   <stop offset="0.968627" style="stop-opacity:1; stop-color:#9A99C2"/>
   <stop offset="0.980392" style="stop-opacity:1; stop-color:#9A99C2"/>
   <stop offset="1" style="stop-opacity:1; stop-color:#9A98C3"/>
  </linearGradient>
  <linearGradient id="id5" gradientUnits="userSpaceOnUse" x1="10395.66" y1="14460.94" x2="10395.66" y2="14460.94">
   <stop offset="0" style="stop-opacity:1; stop-color:#FDFDE3"/>
   <stop offset="0.0313725" style="stop-opacity:1; stop-color:#FDFDE3"/>
   <stop offset="0.0588235" style="stop-opacity:1; stop-color:#FCFDE3"/>
   <stop offset="0.0901961" style="stop-opacity:1; stop-color:#FBFCE3"/>
   <stop offset="0.129412" style="stop-opacity:1; stop-color:#FAFCE3"/>
   <stop offset="0.160784" style="stop-opacity:1; stop-color:#FAFCE3"/>
   <stop offset="0.168627" style="stop-opacity:1; stop-color:#F9FCE4"/>
   <stop offset="0.188235" style="stop-opacity:1; stop-color:#F9FBE4"/>
   <stop offset="0.219608" style="stop-opacity:1; stop-color:#F8FBE3"/>
   <stop offset="0.239216" style="stop-opacity:1; stop-color:#F8FAE4"/>
   <stop offset="0.25098" style="stop-opacity:1; stop-color:#F7F9E4"/>
   <stop offset="0.270588" style="stop-opacity:1; stop-color:#F6F9E4"/>
   <stop offset="0.278431" style="stop-opacity:1; stop-color:#F6F9E5"/>
   <stop offset="0.309804" style="stop-opacity:1; stop-color:#F5F8E5"/>
   <stop offset="0.329412" style="stop-opacity:1; stop-color:#F5F7E5"/>
   <stop offset="0.34902" style="stop-opacity:1; stop-color:#F4F7E5"/>
   <stop offset="0.360784" style="stop-opacity:1; stop-color:#F4F6E6"/>
   <stop offset="0.380392" style="stop-opacity:1; stop-color:#F3F6E6"/>
   <stop offset="0.388235" style="stop-opacity:1; stop-color:#F2F6E6"/>
   <stop offset="0.411765" style="stop-opacity:1; stop-color:#F1F5E6"/>
   <stop offset="0.419608" style="stop-opacity:1; stop-color:#F1F4E6"/>
   <stop offset="0.439216" style="stop-opacity:1; stop-color:#F0F4E6"/>
   <stop offset="0.45098" style="stop-opacity:1; stop-color:#F0F3E7"/>
   <stop offset="0.470588" style="stop-opacity:1; stop-color:#EFF3E7"/>
   <stop offset="0.490196" style="stop-opacity:1; stop-color:#EEF2E7"/>
   <stop offset="0.501961" style="stop-opacity:1; stop-color:#EDF1E7"/>
   <stop offset="0.509804" style="stop-opacity:1; stop-color:#ECF0E7"/>
   <stop offset="0.529412" style="stop-opacity:1; stop-color:#ECF0E8"/>
   <stop offset="0.54902" style="stop-opacity:1; stop-color:#EBEFE8"/>
   <stop offset="0.560784" style="stop-opacity:1; stop-color:#EBEFE7"/>
   <stop offset="0.580392" style="stop-opacity:1; stop-color:#EAEEE8"/>
   <stop offset="0.588235" style="stop-opacity:1; stop-color:#E9EEE8"/>
   <stop offset="0.611765" style="stop-opacity:1; stop-color:#E9EDE8"/>
   <stop offset="0.619608" style="stop-opacity:1; stop-color:#E8EDE8"/>
   <stop offset="0.639216" style="stop-opacity:1; stop-color:#E8ECE8"/>
   <stop offset="0.65098" style="stop-opacity:1; stop-color:#E7EBE8"/>
   <stop offset="0.670588" style="stop-opacity:1; stop-color:#E6EBE9"/>
   <stop offset="0.690196" style="stop-opacity:1; stop-color:#E6EAE9"/>
   <stop offset="0.701961" style="stop-opacity:1; stop-color:#E5EAE9"/>
   <stop offset="0.721569" style="stop-opacity:1; stop-color:#E5E9EA"/>
   <stop offset="0.729412" style="stop-opacity:1; stop-color:#E4E9EA"/>
   <stop offset="0.74902" style="stop-opacity:1; stop-color:#E4E8EA"/>
   <stop offset="0.760784" style="stop-opacity:1; stop-color:#E3E7EA"/>
   <stop offset="0.780392" style="stop-opacity:1; stop-color:#E2E7EB"/>
   <stop offset="0.8" style="stop-opacity:1; stop-color:#E2E6EB"/>
   <stop offset="0.811765" style="stop-opacity:1; stop-color:#E1E5EB"/>
   <stop offset="0.831373" style="stop-opacity:1; stop-color:#E0E4EB"/>
   <stop offset="0.839216" style="stop-opacity:1; stop-color:#E0E4EC"/>
   <stop offset="0.870588" style="stop-opacity:1; stop-color:#DFE3EC"/>
   <stop offset="0.890196" style="stop-opacity:1; stop-color:#DEE3EC"/>
   <stop offset="0.909804" style="stop-opacity:1; stop-color:#DDE2EC"/>
   <stop offset="0.921569" style="stop-opacity:1; stop-color:#DDE2EC"/>
   <stop offset="0.941176" style="stop-opacity:1; stop-color:#DCE1EC"/>
   <stop offset="0.94902" style="stop-opacity:1; stop-color:#DCE0ED"/>
   <stop offset="0.968627" style="stop-opacity:1; stop-color:#DBE0ED"/>
   <stop offset="0.980392" style="stop-opacity:1; stop-color:#DBDFED"/>
   <stop offset="1" style="stop-opacity:1; stop-color:#DADFED"/>
  </linearGradient>
 </defs>
 <g id="Capa_x0020_1">
  <metadata id="CorelCorpID_0Corel-Layer"/>
  <g id="_105553183351488">
   <ellipse class="fil0" cx="10395.46" cy="14473.35" rx="6973.59" ry="6834.11"/>
   <g>
   </g>
   <g>
   </g>
   <g style="clip-path:url(#id0)">
    <g>
     <path class="fil1" d="M11449.95 19247.59c-1265.04,-0.11 -2475.09,-294.3 -3419.61,-975.34 -179.9,-196.4 -299.13,-337.06 -299.13,-337.06 0,0 -24.92,10.99 -80.12,29.11 -883.13,-806.09 -1460.41,-2027.66 -1509.68,-3763.31 -13.93,-494.03 0.14,-961.15 38.43,-1402.51 138.35,-8.1 283.8,-12.83 435.52,-12.83 31.49,0 63.27,0.18 95.3,0.64l1.31 -97.36c-32.56,-0.35 -64.69,-0.64 -96.72,-0.64 -148.27,0 -290.63,4.44 -426.46,12.3 170.13,-1777.6 735.79,-3133.32 1447.05,-4161.16l1040.6 79.06c0,0 333.07,-532.89 1031.57,-945.02 -328.17,30.57 -649.72,83.36 -963.07,156.76 313.24,-73.4 634.69,-126.12 962.9,-156.76 220.95,-20.58 444.83,-31.14 671.09,-31.14 1243.46,0 2411.07,317.86 3422.45,874.95l0.57 0c1402.65,772.26 2505.13,2005.1 3093.37,3488.33 303.81,766.22 470.1,1598.33 470.1,2469.3 0,967.24 -205.67,1888.04 -576.5,2721.9l0 0.64c-19.01,42.41 -38.39,84.71 -58.22,126.76 19.73,-42.05 39.1,-84.35 57.94,-126.87l0 -0.28c-140.77,-1252.96 -848.75,-1840.37 -848.75,-1840.37 -472.56,632.45 -2014.84,1070.25 -2014.84,1070.25 -99.46,1289.29 -721.35,2602.78 -721.35,2602.78 15.39,11.02 30.96,21.75 46.67,32.31 -7.36,1.56 -14.54,2.92 -22,4.44l-51.97 -77.34c-69.99,44.96 -149.23,88.36 -235.61,130.13 -497.12,83.72 -998.08,128.33 -1490.84,128.33z"/>
    </g>
   </g>
   <path class="fil2" d="M6130.53 7639.24l11238.52 0 0 11611.62 -11238.52 0 0 -11611.62zm0 0z"/>
   <path class="fil2" d="M6130.53 7639.24l11238.52 0 0 11611.62 -11238.52 0 0 -11611.62zm0 0z"/>
   <path class="fil3" d="M6711.33 12737.63c0,0 1426.18,-1946.05 2072.92,-2302.77 0,0 2072.92,389.21 2985.02,1151.33 0,0 82.9,1767.68 -215.59,2797.44 0,0 -2172.45,770.3 -3150.84,819 0,0 -1542.28,-1897.46 -1691.51,-2465z"/>
   <path class="fil3" d="M16788.64 17197.06l0 0.28c-412.84,928.03 -1030.29,1748.77 -1796.44,2407.96 -574.11,-70.25 -1300.2,-227.22 -1788.5,-575.58 0,0 621.89,-1313.49 721.35,-2602.78 0,0 1542.28,-437.8 2014.84,-1070.25 0,0 707.98,587.41 848.75,1840.37z"/>
   <path class="fil3" d="M16895.14 12005.79l-681.61 383.2c0,0 -174.08,-437.91 -621.79,-875.78 -447.82,-437.79 -1492.51,-1078.27 -1492.51,-1078.27 22.86,-787.23 -127.93,-1441.08 -297.56,-1917.83 1402.93,772.61 2505.41,2005.09 3093.47,3488.68z"/>
   <path class="fil3" d="M10094.34 19905.52l-1079.85 1270.99c-1112.15,-215.03 -2129.29,-688.41 -2983.49,-1353.53 -125.37,-338.08 -244.52,-682.32 -314.66,-939.11 -199.03,-729.85 -199.03,-729.85 -199.03,-729.85 0,0 447.75,97.4 1194.02,0 746.24,-97.25 1019.88,-218.83 1019.88,-218.83 0,0 721.36,851.28 1293.48,1289.19 572.13,437.9 1069.65,681.14 1069.65,681.14z"/>
   <path class="fil3" d="M4184.52 11311.63c51.75,489.12 170.91,1117.66 437.33,1709.8 0,0 -559.22,636.12 -696.51,2181.2 -55.73,625.7 -82.61,1199 -94.8,1659.76 -283.56,-743.11 -438.54,-1547.82 -438.54,-2387.76 0,-1141.34 286.33,-2217.49 792.52,-3163z"/>
   <path class="fil3" d="M9708.01 7673.47c-698.5,412.13 -1031.57,945.02 -1031.57,945.02l-1673.58 -127.22c815.65,-440.97 1731.31,-727.01 2705.15,-817.8z"/>
   <path class="fil3" d="M4638.77 13067.11l-33.91 -91.42c8.53,-3.03 868.8,-302.86 2107.11,-286.76l-1.31 97.36c-1220.08,-15.92 -2063.5,277.91 -2071.89,280.82z"/>
   <path class="fil3" d="M11799.31 11624.94l-60.18 -77.53c54.99,-40.67 1356.29,-998.16 2351.92,-1160.5l16.29 95.98c-971.61,158.43 -2294.84,1132.35 -2308.03,1142.05z"/>
   <path class="fil3" d="M15986.03 15374.89l-92.18 -36.51c462.36,-1118.66 272.19,-2926.08 270.27,-2944.28l98.92 -10.3c1.99,18.37 194.84,1849.68 -277.01,2991.09z"/>
   <polygon class="fil3" points="13892.21,16463.44 11520.73,14420.1 11586.53,14347.12 13958,16390.47 "/>
   <path class="fil3" d="M10101.44 19953.65l-14.25 -96.29c22.29,-3.17 2237.82,-321.13 3089.21,-868.23l54.6 81.29c-869.87,559.01 -3037.7,870.23 -3129.56,883.23z"/>
   <path class="fil3" d="M7681.55 17938.29c-74.57,-1118.24 645.25,-2689.45 675.96,-2755.78l90.65 40.14c-7.43,16.03 -740.27,1615.53 -667.29,2709.35l-99.32 6.29z"/>
   <path class="fil3" d="M5484.4 18190.53c-1067.09,-922.2 -1636.33,-2507.41 -1641.99,-2523.34l94.06 -31.85c5.55,15.64 566.62,1577.29 1613.8,2482.28l-65.87 72.91z"/>
   <path class="fil3" d="M8735.73 10445.6c-165.43,-711.9 -109.55,-1818.48 -108.95,-1829.56l99.35 5.01c-0.56,10.91 -55.77,1104.37 106.61,1802.97l-97.01 21.58z"/>
   <g>
   </g>
   <g>
   </g>
   <g style="clip-path:url(#id1)">
    <g>
     <path class="fil4" d="M10378.93 21306.82c-467.13,0 -923.09,-44.68 -1364.33,-130.39l1079.74 -1270.91 7.1 48.13c91.86,-13 2259.69,-324.22 3129.56,-883.23l-2.63 -3.95c7.46,-1.52 14.64,-2.88 22,-4.44 487.13,325.86 1185.74,475.19 1741.83,543.27 33.49,-28.83 66.8,-58.05 99.75,-87.45 -33.03,29.47 -66.44,58.79 -99.99,87.73 -1230.53,1058.98 -2845.39,1701.24 -4613.03,1701.24zm-3955.7 -1199.64c-134.26,-90.36 -265.04,-185.09 -392.3,-284.2 -984.29,-766.21 -1752.35,-1786.97 -2200.11,-2960.52 -0.1,-0.25 -0.17,-0.46 -0.24,-0.64 8.38,-317.4 23.78,-688.33 50.76,-1092.82 145.03,366.28 692.98,1635.02 1603.06,2421.53l32.91 -36.51c0.07,0.29 3.45,12.59 199.03,729.85 70.14,256.79 189.29,601.03 314.66,939.11 127.19,99.11 258,193.84 392.23,284.2zm3671.07 -201.66c-1.07,-0.56 -498.12,-243.81 -1069.61,-681.14 -339.54,-259.89 -731.66,-665.41 -994.35,-952.13 944.52,681.04 2154.57,975.23 3419.61,975.34 492.76,0 993.72,-44.61 1490.84,-128.33 -965.13,467.12 -2833.12,735.18 -2853.6,738.1l7.11 48.16zm4998.18 -388.2c0.22,-0.18 0.4,-0.29 0.57,-0.47 -0.17,0.18 -0.35,0.29 -0.57,0.47zm-9022.38 -1319.97c-352.91,0 -551.83,-43.04 -552.79,-43.33l32.96 -36.4c-1047.18,-904.99 -1608.25,-2466.64 -1613.8,-2482.28l-47.03 15.93c10.38,-145.78 22.29,-295.68 35.9,-448.64 137.25,-1544.37 695.94,-2180.56 696.47,-2181.2l16.96 45.68c7.11,-2.45 613.72,-213.74 1541.07,-268.63 -38.29,441.36 -52.36,908.48 -38.43,1402.51 49.27,1735.65 626.55,2957.22 1509.68,3763.31 -127.94,41.95 -418.57,121.86 -939.76,189.72 -248.79,32.49 -464.31,43.33 -641.23,43.33z"/>
    </g>
   </g>
   <path class="fil5" d="M3828.23 12789.85l11265.82 0 0 8517.61 -11265.82 0 0 -8517.61zm0 0z"/>
   <path class="fil5" d="M3828.23 12789.85l11265.82 0 0 8517.61 -11265.82 0 0 -8517.61zm0 0z"/>
   <path class="fil3" d="M14992.2 19605.3c-556.09,-68.08 -1254.7,-217.41 -1741.83,-543.27 1171.09,-235.96 2305.4,-684.49 3238.89,-1272.83 -368.08,647.92 -841.21,1231.06 -1396.21,1727.65 -0.17,0.18 -0.35,0.29 -0.57,0.47 -0.18,0.17 -0.35,0.35 -0.53,0.53 -32.95,29.4 -66.26,58.62 -99.75,87.45z"/>
   <path class="fil3" d="M9014.6 21176.43c-0.07,-0.1 -0.14,-0.1 -0.18,-0.1 -946.26,-183 -1824.02,-553.01 -2591.19,-1069.15 -134.23,-90.36 -265.04,-185.09 -392.23,-284.2 -125.37,-338.08 -244.52,-682.32 -314.66,-939.11 -195.58,-717.26 -198.96,-729.56 -199.03,-729.85 0.96,0.29 199.88,43.33 552.79,43.33 176.92,0 392.44,-10.84 641.23,-43.33 521.19,-67.86 811.82,-147.77 939.76,-189.72 120.93,110.38 247.44,212.86 379.25,307.95 262.69,286.72 654.81,692.24 994.35,952.13 571.49,437.33 1068.54,680.58 1069.61,681.14l0.04 0 -1079.74 1270.91z"/>
   <g>
   </g>
   <g>
   </g>
   <g style="clip-path:url(#id2)">
    <g>
     <path class="fil6" d="M3557.79 15961.02c-108.63,-478.49 -165.97,-975.8 -165.97,-1486.11 0,-551.58 66.94,-1087.84 193.13,-1601.35 -126.16,513.62 -192.95,1049.7 -192.95,1601.07 0,510.42 57.27,1007.9 165.79,1486.39zm1064.02 -2939.59c-266.35,-592.03 -385.54,-1220.68 -437.29,-1709.8 0.03,-0.07 0,0 0.03,-0.07 635.83,-1188.83 1619.56,-2171.92 2818.34,-2820.12 0.11,0 0.18,-0.07 0.25,-0.07l632.7 48.06c-711.26,1027.84 -1276.92,2383.56 -1447.05,4161.16 -950.88,54.42 -1576.64,272.54 -1583.93,275.1l16.95 45.74z"/>
    </g>
   </g>
   <path class="fil5" d="M3391.43 8485.54l4249.71 0 0 7480.21 -4249.71 0 0 -7480.21zm0 0z"/>
   <path class="fil5" d="M3391.43 8485.54l4249.71 0 0 7480.21 -4249.71 0 0 -7480.21zm0 0z"/>
   <path class="fil3" d="M3830.58 16861.82c-111.23,-291.38 -202.69,-592.21 -272.79,-900.8 -108.52,-478.49 -165.79,-975.97 -165.79,-1486.39 0,-551.37 66.79,-1087.45 192.95,-1601.07 135.07,-549.55 338.05,-1073.16 599.57,-1561.93 51.75,489.12 170.94,1117.77 437.29,1709.8 -0.53,0.64 -559.22,636.83 -696.47,2181.2 -13.61,152.96 -25.52,302.86 -35.9,448.64l-47.03 15.92c0.86,2.28 13.87,38.68 38.93,101.81 -26.98,404.49 -42.38,775.42 -50.76,1092.82z"/>
   <path class="fil3" d="M7635.84 8539.43l-632.7 -48.06c320.21,-173.36 655.66,-322.52 1004.06,-444.73 -127.12,155.16 -251.35,319.32 -371.36,492.79z"/>
   <path class="fil3" d="M4638.77 13067.11l-16.96 -45.68 -16.95 -45.74c7.29,-2.56 633.05,-220.68 1583.93,-275.1 -3.12,32.49 -6.11,65.16 -8.95,97.89 -927.35,54.89 -1533.96,266.18 -1541.07,268.63z"/>
   <path class="fil3" d="M10101.44 19953.65l-7.1 -48.13 -0.04 0 -7.11 -48.16c20.48,-2.92 1888.47,-270.98 2853.6,-738.1 96.01,-16.1 191.92,-33.77 287.58,-52.79l2.63 3.95c-869.87,559.01 -3037.7,870.23 -3129.56,883.23z"/>
   <path class="fil3" d="M5484.4 18190.53c-910.08,-786.51 -1458.03,-2055.25 -1603.06,-2421.53 -25.06,-63.13 -38.07,-99.53 -38.93,-101.81l94.06 -31.85c5.55,15.64 566.62,1577.29 1613.8,2482.28l-32.96 36.4 -32.91 36.51z"/>
   <path class="fil7" d="M12277.77 12092.99c0,0 1426.14,-977.65 1829.57,-841.4 403.49,136.21 1578.74,1026.28 1617.98,1266.82 39.14,240.51 -243.81,2771.95 -729.1,2838.28 -485.39,66.26 -2085.36,-882.17 -2085.36,-882.17 0,0 -1269.98,-1108.1 -633.09,-2381.53z"/>
   <path class="fil7" d="M8832.74 15811.76c0,0 1368.7,-1082.15 2230.54,-598.39 861.97,483.75 1917.82,1174.82 1859.95,1554.11 -57.76,379.18 -1402.5,1423.05 -1402.5,1423.05 0,0 -3429.85,-1088.84 -2687.99,-2378.77z"/>
  </g>
 </g>
</svg>
